<svg width="16" height="16" viewBox="0 0 16 16" fill="none" xmlns="http://www.w3.org/2000/svg">
<path d="M15.0977 7.6681C14.4349 4.67154 13.4374 3.07216 11.9577 2.63529C11.6467 2.54404 11.324 2.49846 10.9999 2.49998C10.5715 2.49998 10.1983 2.60435 9.80365 2.71498C9.32803 2.84841 8.78771 2.99998 7.9999 2.99998C7.21209 2.99998 6.67146 2.84873 6.1949 2.71529C5.7999 2.60435 5.42709 2.49998 4.9999 2.49998C4.66472 2.4988 4.331 2.54423 4.00834 2.63498C2.53646 3.06998 1.53959 4.66873 0.867089 7.66623C0.143964 10.8919 0.499901 12.9284 1.86521 13.4009C2.05236 13.4669 2.24928 13.5009 2.44771 13.5015C3.38303 13.5015 4.13303 12.7225 4.64553 12.0847C5.22459 11.3628 5.9024 10.9965 7.9999 10.9965C9.87334 10.9965 10.6487 11.2506 11.3183 12.0847C11.7393 12.609 12.1371 12.9759 12.534 13.2069C13.0618 13.5137 13.5893 13.5819 14.1015 13.4059C14.9083 13.1306 15.3708 12.4028 15.4765 11.2422C15.5568 10.3522 15.433 9.1831 15.0977 7.6681ZM6.4999 7.49998H5.4999V8.49998C5.4999 8.63258 5.44722 8.75976 5.35345 8.85353C5.25969 8.9473 5.13251 8.99998 4.9999 8.99998C4.86729 8.99998 4.74012 8.9473 4.64635 8.85353C4.55258 8.75976 4.4999 8.63258 4.4999 8.49998V7.49998H3.4999C3.36729 7.49998 3.24012 7.4473 3.14635 7.35353C3.05258 7.25976 2.9999 7.13258 2.9999 6.99998C2.9999 6.86737 3.05258 6.74019 3.14635 6.64642C3.24012 6.55265 3.36729 6.49998 3.4999 6.49998H4.4999V5.49998C4.4999 5.36737 4.55258 5.24019 4.64635 5.14642C4.74012 5.05265 4.86729 4.99998 4.9999 4.99998C5.13251 4.99998 5.25969 5.05265 5.35345 5.14642C5.44722 5.24019 5.4999 5.36737 5.4999 5.49998V6.49998H6.4999C6.63251 6.49998 6.75969 6.55265 6.85345 6.64642C6.94722 6.74019 6.9999 6.86737 6.9999 6.99998C6.9999 7.13258 6.94722 7.25976 6.85345 7.35353C6.75969 7.4473 6.63251 7.49998 6.4999 7.49998ZM9.1249 7.62498C9.00129 7.62498 8.88045 7.58832 8.77767 7.51964C8.67489 7.45097 8.59478 7.35336 8.54748 7.23915C8.50017 7.12495 8.4878 6.99928 8.51191 6.87804C8.53603 6.75681 8.59555 6.64544 8.68296 6.55803C8.77037 6.47063 8.88173 6.4111 9.00297 6.38698C9.12421 6.36287 9.24988 6.37525 9.36408 6.42255C9.47828 6.46986 9.57589 6.54996 9.64457 6.65274C9.71325 6.75553 9.7499 6.87636 9.7499 6.99998C9.7499 7.16574 9.68405 7.32471 9.56684 7.44192C9.44963 7.55913 9.29066 7.62498 9.1249 7.62498ZM10.4999 8.99998C10.3762 8.99998 10.2553 8.96328 10.1525 8.89453C10.0497 8.82579 9.96959 8.72809 9.92233 8.61379C9.87507 8.4995 9.86279 8.37375 9.88703 8.25247C9.91127 8.13119 9.97095 8.01983 10.0585 7.93248C10.1461 7.84514 10.2576 7.78573 10.3789 7.7618C10.5003 7.73786 10.626 7.75046 10.7402 7.798C10.8543 7.84555 10.9518 7.9259 11.0203 8.02888C11.0888 8.13187 11.1252 8.25286 11.1249 8.37654C11.1245 8.54203 11.0585 8.7006 10.9413 8.81747C10.8241 8.93434 10.6654 8.99998 10.4999 8.99998ZM10.4999 6.24998C10.3763 6.24998 10.2555 6.21332 10.1527 6.14464C10.0499 6.07597 9.96978 5.97836 9.92248 5.86415C9.87517 5.74995 9.8628 5.62428 9.88691 5.50304C9.91103 5.38181 9.97055 5.27044 10.058 5.18303C10.1454 5.09563 10.2567 5.0361 10.378 5.01198C10.4992 4.98787 10.6249 5.00025 10.7391 5.04755C10.8533 5.09486 10.9509 5.17496 11.0196 5.27774C11.0882 5.38052 11.1249 5.50136 11.1249 5.62498C11.1249 5.79074 11.0591 5.94971 10.9418 6.06692C10.8246 6.18413 10.6657 6.24998 10.4999 6.24998ZM11.8749 7.62498C11.7513 7.62498 11.6305 7.58832 11.5277 7.51964C11.4249 7.45097 11.3448 7.35336 11.2975 7.23915C11.2502 7.12495 11.2378 6.99928 11.2619 6.87804C11.286 6.75681 11.3456 6.64544 11.433 6.55803C11.5204 6.47063 11.6317 6.4111 11.753 6.38698C11.8742 6.36287 11.9999 6.37525 12.1141 6.42255C12.2283 6.46986 12.3259 6.54996 12.3946 6.65274C12.4632 6.75553 12.4999 6.87636 12.4999 6.99998C12.4999 7.16574 12.4341 7.32471 12.3168 7.44192C12.1996 7.55913 12.0407 7.62498 11.8749 7.62498Z" fill="#017FFF"/>
</svg>
