<svg width="16" height="16" viewBox="0 0 16 16" fill="none" xmlns="http://www.w3.org/2000/svg">
<path d="M5.14664 4.35378C5.10015 4.30734 5.06328 4.2522 5.03811 4.1915C5.01295 4.1308 5 4.06573 5 4.00003C5 3.93432 5.01295 3.86926 5.03811 3.80856C5.06328 3.74786 5.10015 3.69271 5.14664 3.64628L7.64664 1.14628C7.69308 1.09979 7.74822 1.06291 7.80892 1.03775C7.86962 1.01259 7.93469 0.999634 8.00039 0.999634C8.0661 0.999634 8.13116 1.01259 8.19186 1.03775C8.25256 1.06291 8.30771 1.09979 8.35414 1.14628L10.8541 3.64628C10.9006 3.69271 10.9375 3.74786 10.9627 3.80856C10.9878 3.86926 11.0008 3.93432 11.0008 4.00003C11.0008 4.06573 10.9878 4.1308 10.9627 4.1915C10.9375 4.2522 10.9006 4.30734 10.8541 4.35378L8.35414 6.85378C8.30771 6.90027 8.25256 6.93714 8.19186 6.96231C8.13116 6.98747 8.0661 7.00042 8.00039 7.00042C7.93469 7.00042 7.86962 6.98747 7.80892 6.96231C7.74822 6.93714 7.69308 6.90027 7.64664 6.85378L5.14664 4.35378ZM8.35414 9.14628C8.30771 9.09979 8.25256 9.06291 8.19186 9.03775C8.13116 9.01258 8.0661 8.99963 8.00039 8.99963C7.93469 8.99963 7.86962 9.01258 7.80892 9.03775C7.74822 9.06291 7.69308 9.09979 7.64664 9.14628L5.14664 11.6463C5.10015 11.6927 5.06328 11.7479 5.03811 11.8086C5.01295 11.8693 5 11.9343 5 12C5 12.0657 5.01295 12.1308 5.03811 12.1915C5.06328 12.2522 5.10015 12.3073 5.14664 12.3538L7.64664 14.8538C7.69308 14.9003 7.74822 14.9371 7.80892 14.9623C7.86962 14.9875 7.93469 15.0004 8.00039 15.0004C8.0661 15.0004 8.13116 14.9875 8.19186 14.9623C8.25256 14.9371 8.30771 14.9003 8.35414 14.8538L10.8541 12.3538C10.9006 12.3073 10.9375 12.2522 10.9627 12.1915C10.9878 12.1308 11.0008 12.0657 11.0008 12C11.0008 11.9343 10.9878 11.8693 10.9627 11.8086C10.9375 11.7479 10.9006 11.6927 10.8541 11.6463L8.35414 9.14628ZM14.8541 7.64628L12.3541 5.14628C12.3077 5.09979 12.2526 5.06291 12.1919 5.03775C12.1312 5.01259 12.0661 4.99963 12.0004 4.99963C11.9347 4.99963 11.8696 5.01259 11.8089 5.03775C11.7482 5.06291 11.6931 5.09979 11.6466 5.14628L9.14664 7.64628C9.10015 7.69271 9.06327 7.74786 9.03811 7.80856C9.01295 7.86926 9 7.93432 9 8.00003C9 8.06573 9.01295 8.1308 9.03811 8.1915C9.06327 8.2522 9.10015 8.30734 9.14664 8.35378L11.6466 10.8538C11.6931 10.9003 11.7482 10.9371 11.8089 10.9623C11.8696 10.9875 11.9347 11.0004 12.0004 11.0004C12.0661 11.0004 12.1312 10.9875 12.1919 10.9623C12.2526 10.9371 12.3077 10.9003 12.3541 10.8538L14.8541 8.35378C14.9006 8.30734 14.9375 8.2522 14.9627 8.1915C14.9878 8.1308 15.0008 8.06573 15.0008 8.00003C15.0008 7.93432 14.9878 7.86926 14.9627 7.80856C14.9375 7.74786 14.9006 7.69271 14.8541 7.64628ZM6.85414 7.64628L4.35414 5.14628C4.30771 5.09979 4.25256 5.06291 4.19186 5.03775C4.13116 5.01259 4.0661 4.99963 4.00039 4.99963C3.93469 4.99963 3.86962 5.01259 3.80892 5.03775C3.74822 5.06291 3.69308 5.09979 3.64664 5.14628L1.14664 7.64628C1.10016 7.69271 1.06328 7.74786 1.03811 7.80856C1.01295 7.86926 1 7.93432 1 8.00003C1 8.06573 1.01295 8.1308 1.03811 8.1915C1.06328 8.2522 1.10016 8.30734 1.14664 8.35378L3.64664 10.8538C3.69308 10.9003 3.74822 10.9371 3.80892 10.9623C3.86962 10.9875 3.93469 11.0004 4.00039 11.0004C4.0661 11.0004 4.13116 10.9875 4.19186 10.9623C4.25256 10.9371 4.30771 10.9003 4.35414 10.8538L6.85414 8.35378C6.90063 8.30734 6.93751 8.2522 6.96267 8.1915C6.98784 8.1308 7.00079 8.06573 7.00079 8.00003C7.00079 7.93432 6.98784 7.86926 6.96267 7.80856C6.93751 7.74786 6.90063 7.69271 6.85414 7.64628Z" fill="#017FFF"/>
</svg>
