<svg width="16" height="16" viewBox="0 0 16 16" fill="none" xmlns="http://www.w3.org/2000/svg">
<path d="M8 1.33331C9.5913 1.33331 11.1174 1.96545 12.2426 3.09067C13.3679 4.21589 14 5.74201 14 7.33331C14 9.38265 12.8827 11.06 11.7053 12.2633C11.1171 12.858 10.4753 13.3972 9.788 13.874L9.504 14.0673L9.37067 14.156L9.11933 14.316L8.89533 14.4526L8.618 14.614C8.42976 14.7214 8.21675 14.7779 8 14.7779C7.78325 14.7779 7.57024 14.7214 7.382 14.614L7.10467 14.4526L6.758 14.2393L6.63 14.156L6.35667 13.974C5.61522 13.4723 4.9246 12.8994 4.29467 12.2633C3.11733 11.0593 2 9.38265 2 7.33331C2 5.74201 2.63214 4.21589 3.75736 3.09067C4.88258 1.96545 6.4087 1.33331 8 1.33331ZM8 5.33331C7.73736 5.33331 7.47728 5.38504 7.23463 5.48555C6.99198 5.58606 6.7715 5.73338 6.58579 5.9191C6.40007 6.10482 6.25275 6.32529 6.15224 6.56795C6.05173 6.8106 6 7.07067 6 7.33331C6 7.59596 6.05173 7.85603 6.15224 8.09868C6.25275 8.34133 6.40007 8.56181 6.58579 8.74753C6.7715 8.93324 6.99198 9.08056 7.23463 9.18107C7.47728 9.28158 7.73736 9.33331 8 9.33331C8.53043 9.33331 9.03914 9.1226 9.41421 8.74753C9.78929 8.37245 10 7.86375 10 7.33331C10 6.80288 9.78929 6.29417 9.41421 5.9191C9.03914 5.54403 8.53043 5.33331 8 5.33331Z" fill="#017FFF"/>
</svg>
